<?xml version="1.0" standalone="no"?>
<!DOCTYPE svg PUBLIC "-//W3C//DTD SVG 20010904//EN"
 "http://www.w3.org/TR/2001/REC-SVG-20010904/DTD/svg10.dtd">
<svg version="1.0" xmlns="http://www.w3.org/2000/svg"
 width="512.000000pt" height="512.000000pt" viewBox="0 0 512.000000 512.000000"
 preserveAspectRatio="xMidYMid meet">

<g transform="translate(0.000000,512.000000) scale(0.100000,-0.100000)"
fill="#000000" stroke="none">
<path d="M1223 3620 c-71 -64 -105 -102 -112 -124 -4 -18 -5 -89 0 -162 4 -71
8 -137 9 -146 0 -14 8 -18 34 -18 l34 0 5 68 c3 37 20 112 37 167 18 55 34
115 37 134 8 52 -18 34 -42 -29 -25 -66 -45 -77 -45 -24 0 34 7 45 76 109 59
55 75 76 72 94 -3 21 -13 15 -105 -69z"/>
<path d="M1360 3689 c0 -20 24 -47 112 -126 35 -31 56 -82 43 -103 -11 -18
-33 8 -47 51 -11 40 -33 67 -45 56 -3 -4 11 -62 32 -129 23 -75 39 -151 42
-195 l5 -73 32 0 33 0 6 63 c4 34 9 109 13 166 l7 104 -99 94 c-117 111 -134
123 -134 92z"/>
<path d="M1035 3635 c-15 -15 -24 -29 -21 -33 4 -3 19 6 33 21 35 34 25 45
-12 12z"/>
<path d="M1620 3652 c0 -10 43 -52 53 -52 3 0 4 6 1 14 -7 17 -54 50 -54 38z"/>
<path d="M975 3610 c-8 -16 -15 -48 -15 -70 l0 -42 32 27 c17 14 40 38 51 52
l20 25 -32 -16 c-18 -10 -35 -24 -38 -32 -3 -7 -9 -14 -15 -14 -5 0 -7 4 -4 8
7 12 25 92 20 92 -2 0 -10 -13 -19 -30z"/>
<path d="M1701 3594 c5 -25 12 -51 16 -57 4 -7 -10 3 -30 21 -21 17 -40 32
-42 32 -13 0 11 -32 46 -59 l39 -32 0 41 c0 34 -22 100 -34 100 -2 0 0 -21 5
-46z"/>
<path d="M1322 3588 c-15 -15 -15 -33 1 -59 10 -18 9 -23 -15 -40 -28 -20 -28
-22 -28 -130 0 -88 3 -111 15 -115 9 -4 15 -19 15 -40 0 -32 2 -34 35 -34 33
0 35 2 35 34 0 21 6 36 15 40 12 4 15 26 15 111 0 102 -1 107 -27 131 -23 22
-25 27 -14 48 23 42 -16 85 -47 54z"/>
<path d="M3475 3583 c-81 -42 -115 -104 -115 -208 0 -57 5 -79 28 -120 86
-157 344 -128 378 44 l7 31 -64 0 c-62 0 -64 -1 -79 -32 -26 -54 -91 -56 -126
-3 -23 36 -23 134 -1 169 31 47 108 47 129 1 10 -23 17 -25 75 -25 62 0 64 1
58 23 -29 98 -83 137 -190 136 -44 0 -81 -6 -100 -16z"/>
<path d="M1952 3421 c3 -189 8 -205 79 -246 48 -28 169 -28 223 0 75 38 81 54
84 246 l4 169 -66 0 -66 0 0 -143 c0 -164 -8 -187 -64 -187 -60 0 -66 18 -66
183 l0 147 -66 0 -65 0 3 -169z"/>
<path d="M2430 3375 l0 -215 60 0 59 0 3 120 3 120 66 -118 66 -117 62 -3 61
-3 0 216 0 215 -60 0 -59 0 -3 -112 -3 -113 -60 112 -60 113 -67 0 -68 0 0
-215z"/>
<path d="M2900 3375 l0 -215 65 0 64 0 3 88 3 87 63 3 62 3 0 -91 0 -90 65 0
65 0 0 215 0 215 -65 0 -65 0 0 -75 0 -76 -62 3 -63 3 -3 73 -3 72 -64 0 -65
0 0 -215z"/>
<path d="M3830 3376 l0 -216 65 0 64 0 3 78 3 77 41 3 c53 4 83 -20 90 -73 12
-90 8 -85 78 -85 l63 0 -9 58 c-12 81 -27 121 -48 132 -17 9 -17 12 11 39 24
25 29 37 29 80 0 42 -5 56 -29 83 l-29 33 -166 3 -166 3 0 -215z m239 114 c25
-13 33 -37 21 -61 -9 -15 -22 -19 -70 -19 l-60 0 0 45 0 45 46 0 c25 0 53 -4
63 -10z"/>
<path d="M926 3540 c-11 -42 -9 -106 2 -127 7 -11 14 -8 34 19 27 36 48 72 48
84 0 13 -49 -39 -57 -60 -6 -15 -10 1 -13 49 -5 65 -6 67 -14 35z"/>
<path d="M1751 3505 l-1 -70 -18 30 c-19 31 -52 63 -52 51 0 -12 21 -49 48
-84 31 -41 42 -29 41 48 -1 86 -17 109 -18 25z"/>
<path d="M881 3434 c-1 -25 47 -124 60 -124 12 0 48 78 49 105 0 19 -1 19 -15
-2 -8 -12 -19 -39 -24 -60 -7 -31 -9 -34 -15 -18 -19 55 -55 118 -55 99z"/>
<path d="M1787 3413 c-9 -21 -22 -51 -28 -68 l-12 -30 -8 38 c-5 21 -16 48
-24 60 -14 21 -15 21 -15 2 1 -26 36 -105 48 -105 12 0 49 69 57 108 9 43 2
41 -18 -5z"/>
<path d="M1690 3273 c0 -57 3 -73 14 -73 15 0 76 56 76 70 0 5 3 17 7 27 4 10
-14 -4 -39 -31 l-46 -49 5 45 c3 25 0 54 -6 64 -8 15 -10 4 -11 -53z"/>
<path d="M982 3275 c1 -30 2 -55 0 -55 -1 0 -18 18 -38 40 -20 22 -39 38 -42
36 -7 -8 38 -75 58 -86 35 -19 40 -12 40 55 0 40 -4 65 -11 65 -7 0 -10 -20
-7 -55z"/>
<path d="M1020 3219 c0 -9 7 -36 15 -59 8 -24 13 -45 10 -48 -2 -2 -31 19 -65
48 -57 49 -67 47 -32 -8 17 -27 44 -42 89 -53 27 -6 33 -4 33 10 0 46 -49 154
-50 110z"/>
<path d="M1642 3203 c-7 -12 -15 -42 -18 -67 l-7 -45 34 9 c53 15 80 32 95 62
22 43 18 42 -42 -6 -65 -54 -81 -58 -59 -15 9 17 15 42 13 57 -3 27 -3 27 -16
5z"/>
<path d="M1090 3129 c8 -30 68 -95 78 -85 5 6 -43 78 -66 100 -21 18 -21 18
-12 -15z"/>
<path d="M1579 3133 c-13 -16 -34 -42 -46 -59 l-22 -32 22 -6 c42 -11 92 -6
125 14 17 11 32 22 32 24 0 5 -104 -18 -132 -29 -25 -10 -22 2 7 28 20 17 53
87 41 87 -1 0 -13 -12 -27 -27z"/>
<path d="M1000 3074 c0 -16 72 -44 110 -44 31 1 40 3 30 10 -18 10 -140 39
-140 34z"/>
<path d="M1950 3070 c0 -5 9 -10 20 -10 18 0 20 -7 20 -60 0 -47 3 -60 15 -60
12 0 15 13 15 60 0 53 2 60 20 60 11 0 20 5 20 10 0 6 -25 10 -55 10 -30 0
-55 -4 -55 -10z"/>
<path d="M2080 3010 c0 -40 4 -70 10 -70 6 0 10 18 10 40 0 28 5 43 16 47 21
8 34 -13 34 -54 0 -18 5 -33 10 -33 6 0 10 20 10 44 0 49 -18 71 -50 61 -16
-5 -20 -2 -20 14 0 12 -4 21 -10 21 -6 0 -10 -30 -10 -70z"/>
<path d="M2360 3026 c0 -63 16 -86 60 -86 44 0 60 23 60 86 0 40 -4 54 -15 54
-10 0 -15 -15 -17 -57 -3 -54 -5 -58 -28 -58 -23 0 -25 4 -28 58 -2 42 -7 57
-17 57 -11 0 -15 -14 -15 -54z"/>
<path d="M2510 3010 c0 -81 17 -95 22 -18 l3 52 32 -52 c18 -29 37 -52 43 -52
6 0 10 28 10 70 0 78 -17 96 -22 23 l-3 -48 -28 48 c-42 69 -57 63 -57 -23z"/>
<path d="M2700 3009 c0 -52 3 -70 13 -67 6 3 13 17 15 32 3 23 8 27 30 24 21
-2 28 -9 30 -30 2 -16 9 -28 18 -28 17 0 16 -3 4 39 -6 24 -6 39 1 47 6 7 8
22 4 34 -5 17 -15 20 -61 20 l-54 0 0 -71z m79 52 c21 -13 5 -41 -24 -41 -20
0 -25 5 -25 25 0 26 22 33 49 16z"/>
<path d="M2963 3063 c-4 -10 -11 -21 -17 -25 -7 -5 -7 -8 2 -8 8 0 12 -16 12
-45 0 -25 5 -45 10 -45 6 0 10 18 10 40 0 25 6 42 16 48 15 8 14 10 -1 16 -17
6 -17 7 1 21 18 14 18 14 -4 15 -13 0 -25 -8 -29 -17z"/>
<path d="M3561 3014 c-24 -67 -21 -97 6 -56 20 28 63 30 70 2 3 -11 12 -20 20
-20 10 0 13 6 8 18 -4 9 -16 41 -27 70 -27 73 -47 70 -77 -14z m59 -6 c0 -10
-6 -18 -14 -18 -21 0 -25 11 -14 40 7 20 11 22 18 10 5 -8 10 -23 10 -32z"/>
<path d="M2212 3034 c-26 -18 -29 -56 -6 -78 19 -20 44 -20 70 -1 18 13 17 14
-16 12 -48 -3 -55 17 -7 21 43 4 49 23 15 46 -12 9 -25 16 -28 16 -3 0 -16 -7
-28 -16z m46 -21 c2 -8 -5 -13 -17 -13 -12 0 -21 6 -21 16 0 18 31 15 38 -3z"/>
<path d="M2858 3039 c-25 -14 -24 -75 1 -89 26 -13 33 -13 57 4 18 13 17 14
-15 13 -19 -1 -36 3 -38 11 -3 8 8 12 36 12 46 0 51 10 21 40 -22 22 -37 24
-62 9z m50 -26 c2 -8 -6 -13 -22 -13 -25 0 -33 10 -19 24 10 10 36 3 41 -11z"/>
<path d="M3154 3043 c-19 -13 -26 -51 -14 -74 9 -16 19 -20 41 -17 23 4 29 1
27 -11 -3 -11 -13 -15 -36 -13 -38 3 -43 -13 -7 -22 48 -12 65 8 65 74 0 41
-4 60 -12 60 -7 0 -22 3 -33 5 -11 3 -25 2 -31 -2z m54 -39 c3 -23 -21 -49
-38 -39 -11 7 -14 48 -3 59 13 13 38 1 41 -20z"/>
<path d="M3270 3030 c-11 -11 -20 -27 -20 -35 0 -18 35 -55 53 -55 7 0 22 7
33 15 18 14 17 15 -15 12 -20 -1 -36 3 -38 11 -3 8 7 12 31 12 40 0 47 17 20
44 -21 21 -40 20 -64 -4z m58 -17 c2 -8 -6 -13 -22 -13 -25 0 -33 10 -19 24
10 10 36 3 41 -11z"/>
<path d="M3388 3039 c-25 -14 -24 -75 1 -89 26 -13 33 -13 57 4 18 13 17 14
-15 13 -19 -1 -36 3 -38 11 -3 8 8 12 36 12 34 0 39 3 34 18 -7 20 -32 42 -47
42 -6 0 -19 -5 -28 -11z m50 -26 c2 -8 -6 -13 -22 -13 -25 0 -33 10 -19 24 10
10 36 3 41 -11z"/>
<path d="M3698 3039 c-19 -11 -24 -54 -9 -78 6 -9 20 -12 40 -9 33 5 36 2 22
-21 -6 -9 -19 -11 -42 -7 -32 7 -33 6 -14 -9 21 -17 64 -12 77 8 13 21 9 117
-4 117 -7 0 -22 2 -33 5 -11 3 -28 0 -37 -6z m57 -30 c5 -14 1 -27 -9 -37 -15
-15 -17 -15 -32 0 -20 20 -10 58 16 58 10 0 22 -10 25 -21z"/>
<path d="M3822 3034 c-52 -36 -8 -111 52 -88 27 10 18 22 -15 20 -18 0 -34 5
-36 12 -3 8 8 12 36 12 45 0 48 5 25 38 -18 26 -32 28 -62 6z m46 -21 c2 -8
-5 -13 -17 -13 -12 0 -21 6 -21 16 0 18 31 15 38 -3z"/>
<path d="M3955 3040 c-3 -5 -12 -7 -20 -3 -12 4 -15 -5 -15 -46 0 -28 5 -51
10 -51 6 0 10 18 10 40 0 28 5 43 16 47 21 8 34 -13 34 -54 0 -18 5 -33 10
-33 14 0 12 84 -2 98 -14 14 -35 16 -43 2z"/>
<path d="M4046 3034 c-32 -32 -10 -94 34 -94 20 0 54 29 45 38 -3 3 -11 0 -17
-6 -19 -19 -46 -14 -53 9 -5 14 -1 27 9 37 14 14 20 15 37 4 27 -17 40 -5 15
14 -26 18 -51 18 -70 -2z"/>
<path d="M3020 3001 c0 -45 13 -58 58 -58 32 0 32 1 32 49 0 26 -4 48 -10 48
-5 0 -10 -16 -10 -35 0 -23 -6 -38 -16 -42 -20 -7 -34 13 -34 50 0 15 -4 27
-10 27 -5 0 -10 -17 -10 -39z"/>
<path d="M4145 3023 c25 -63 28 -76 16 -94 -9 -16 -8 -19 8 -19 13 0 24 16 40
56 23 62 25 74 12 74 -5 0 -14 -15 -21 -32 l-12 -33 -14 33 c-14 33 -42 47
-29 15z"/>
<path d="M1135 3002 l-50 -17 45 -3 c25 -2 72 3 105 12 33 8 71 17 85 19 14 2
-11 4 -55 5 -48 0 -100 -7 -130 -16z"/>
<path d="M1415 3004 c33 -8 89 -17 125 -19 l65 -5 -35 17 c-22 10 -68 17 -125
19 l-90 4 60 -16z"/>
<path d="M1254 2958 l-19 -23 23 19 c21 18 27 26 19 26 -2 0 -12 -10 -23 -22z"/>
<path d="M1425 2960 c10 -11 20 -20 23 -20 3 0 -3 9 -13 20 -10 11 -20 20 -23
20 -3 0 3 -9 13 -20z"/>
<path d="M1728 2613 c464 -2 1220 -2 1680 0 460 1 81 2 -843 2 -924 0 -1301
-1 -837 -2z"/>
<path d="M2510 2359 c-84 -25 -139 -101 -140 -192 0 -96 51 -168 138 -193 64
-19 109 -13 170 22 l42 25 0 79 0 80 -90 0 -90 0 0 -30 0 -30 60 0 c60 0 60 0
60 -30 0 -52 -73 -81 -139 -54 -53 21 -81 66 -81 130 0 118 108 179 201 114
23 -17 33 -19 49 -10 30 16 24 37 -18 65 -44 29 -112 39 -162 24z"/>
<path d="M900 2165 l0 -195 130 0 130 0 0 30 0 30 -95 0 -95 0 0 55 0 55 95 0
95 0 0 30 0 30 -95 0 -95 0 0 50 0 50 95 0 95 0 0 30 0 30 -130 0 -130 0 0
-195z"/>
<path d="M1230 2165 l0 -195 35 0 35 0 0 143 1 142 54 -139 c30 -76 57 -141
59 -144 16 -15 36 20 80 134 27 71 52 133 57 139 5 5 9 -51 9 -133 l0 -142 30
0 30 0 0 196 0 195 -46 -3 -46 -3 -50 -125 c-27 -69 -51 -126 -52 -128 -2 -1
-25 56 -52 128 l-49 130 -47 0 -48 0 0 -195z"/>
<path d="M1700 2165 l0 -195 130 0 130 0 0 30 0 30 -95 0 -95 0 0 55 0 55 95
0 95 0 0 30 0 30 -95 0 -95 0 0 50 0 50 95 0 95 0 0 30 0 30 -130 0 -130 0 0
-195z"/>
<path d="M2030 2165 l0 -195 30 0 29 0 3 73 3 72 31 3 c30 3 34 -1 75 -72 43
-73 45 -76 82 -76 21 0 36 3 34 8 -3 4 -23 37 -46 74 l-41 68 30 15 c55 28 73
94 46 160 -22 51 -58 65 -176 65 l-100 0 0 -195z m198 119 c14 -10 22 -26 22
-44 0 -45 -23 -60 -91 -60 l-59 0 0 60 0 60 53 0 c31 0 61 -6 75 -16z"/>
<path d="M2790 2165 l0 -195 130 0 130 0 0 30 0 30 -95 0 -95 0 0 55 0 55 95
0 95 0 0 30 0 30 -95 0 -95 0 0 50 0 50 95 0 95 0 0 30 0 30 -130 0 -130 0 0
-195z"/>
<path d="M3120 2165 l0 -195 30 0 29 0 3 143 3 142 98 -142 c94 -137 100 -143
133 -143 l34 0 0 195 0 195 -35 0 -34 0 -3 -136 -3 -135 -94 135 c-89 129 -96
136 -128 136 l-33 0 0 -195z"/>
<path d="M3608 2337 c-72 -44 -107 -122 -94 -209 8 -53 52 -120 93 -141 77
-40 168 -29 222 27 l33 34 -30 16 c-28 14 -30 14 -52 -9 -72 -77 -200 -10
-200 103 0 67 26 111 77 134 50 22 89 15 129 -23 18 -17 26 -19 43 -10 27 15
27 32 -1 58 -38 34 -64 43 -125 43 -42 0 -68 -6 -95 -23z"/>
<path d="M3935 2245 l75 -115 0 -80 0 -80 30 0 30 0 0 76 c0 84 -8 67 117 262
l34 52 -39 0 c-37 0 -39 -2 -86 -80 -27 -44 -52 -80 -55 -80 -3 0 -28 36 -55
80 -47 78 -50 80 -87 80 l-38 0 74 -115z"/>
<path d="M2963 1796 c-139 -65 -146 -288 -11 -357 60 -31 161 -24 210 13 63
48 91 142 68 228 -21 78 -105 140 -190 140 -14 0 -48 -11 -77 -24z m132 -50
c66 -28 94 -120 61 -201 -27 -63 -105 -87 -173 -52 -34 18 -63 77 -63 128 0
45 34 104 72 122 41 20 59 21 103 3z"/>
<path d="M3417 1805 c-105 -37 -157 -164 -112 -273 33 -78 86 -112 175 -112
89 0 142 34 175 112 46 113 -13 247 -123 278 -48 13 -68 12 -115 -5z m120 -65
c48 -29 67 -65 67 -125 0 -84 -49 -138 -124 -138 -76 0 -123 53 -123 139 0 64
21 99 74 126 44 23 66 23 106 -2z"/>
<path d="M900 1615 l0 -195 35 0 35 0 0 85 0 85 100 0 100 0 0 -85 0 -85 30 0
30 0 0 195 0 195 -30 0 -30 0 0 -80 0 -80 -100 0 -100 0 0 80 0 80 -35 0 -35
0 0 -195z"/>
<path d="M1415 1798 c-2 -7 -34 -91 -70 -187 -36 -95 -65 -177 -65 -182 0 -5
15 -9 33 -9 30 0 36 4 50 40 l16 41 87 -3 87 -3 12 -35 c10 -30 16 -35 48 -38
20 -2 37 -2 37 0 0 2 -33 89 -73 193 l-72 190 -43 3 c-28 2 -44 -1 -47 -10z
m110 -219 c6 -17 1 -19 -59 -19 -36 0 -66 4 -66 9 0 6 14 49 31 97 l32 87 28
-77 c15 -43 31 -86 34 -97z"/>
<path d="M1700 1615 l0 -195 30 0 29 0 3 139 3 140 95 -137 c86 -124 98 -137
128 -140 l32 -3 0 195 0 196 -30 0 -30 0 0 -137 -1 -138 -24 30 c-13 16 -57
78 -97 137 -67 99 -75 107 -105 108 l-33 0 0 -195z"/>
<path d="M2100 1615 l0 -197 108 3 c98 4 113 7 149 31 53 35 78 87 78 163 0
76 -25 128 -78 163 -36 24 -51 27 -149 30 l-108 4 0 -197z m236 92 c28 -31 34
-44 34 -83 0 -96 -48 -144 -144 -144 l-56 0 0 136 0 136 66 -4 c62 -4 69 -7
100 -41z"/>
<path d="M2500 1614 l0 -196 126 4 c124 3 126 3 150 31 36 42 34 110 -4 145
l-28 26 25 22 c20 17 26 31 26 64 0 35 -6 47 -33 71 -32 28 -35 29 -147 29
l-115 0 0 -196z m215 116 c15 -16 17 -26 9 -48 -9 -26 -13 -27 -82 -30 l-72
-3 0 51 0 50 63 0 c52 0 67 -4 82 -20z m5 -160 c24 -24 25 -38 4 -68 -13 -19
-24 -22 -85 -22 l-69 0 0 55 0 55 65 0 c52 0 69 -4 85 -20z"/>
<path d="M3740 1615 l0 -195 30 0 c30 0 30 0 30 59 0 42 5 65 18 81 l19 23 63
-81 c60 -78 65 -82 102 -82 l39 0 -20 28 c-11 15 -47 61 -80 103 l-60 77 62
73 c100 119 95 109 49 109 -39 0 -43 -3 -114 -92 l-73 -92 -3 92 -3 92 -29 0
-30 0 0 -195z"/>
</g>
</svg>
