<svg width="512" height="512" viewBox="0 0 512 512" fill="none" xmlns="http://www.w3.org/2000/svg">
<rect width="512" height="512" fill="white"/>
<path fill-rule="evenodd" clip-rule="evenodd" d="M65.0895 266.152C65.7815 266.152 65.6827 265.757 65.6827 265.065V261.506C65.6827 260.813 65.5838 260.517 66.0781 260.517C67.5612 260.517 67.9566 260.418 67.9566 259.133V246.082C67.9566 242.523 65.4849 243.116 64.694 241.831C63.7053 240.051 66.5725 240.051 65.4849 236.294C65.1883 235.404 64.4963 234.91 63.211 234.91C61.9257 234.91 61.2336 235.404 60.937 236.294C59.8495 240.051 62.8155 240.051 61.728 241.831C61.0359 243.116 58.4653 242.523 58.4653 246.082V259.133C58.4653 260.418 58.8608 260.517 60.3438 260.517C60.7393 260.517 60.6404 260.715 60.6404 261.506V265.065C60.6404 265.757 60.5416 266.152 61.2336 266.152H65.0895Z" fill="#0072BC"/>
<path fill-rule="evenodd" clip-rule="evenodd" d="M53.7191 237.875C52.4338 239.26 50.4565 242.423 51.7418 245.093C54.4112 246.081 54.2135 236.59 57.575 236.689C59.2557 238.271 57.0806 242.72 56.3886 244.697C55.5976 247.169 54.9055 252.31 53.3237 254.782C52.0384 256.858 53.0271 263.383 52.5327 265.558C51.4452 266.646 48.3803 265.855 47.095 265.657C47.095 263.087 46.7984 261.109 46.3041 256.957C46.3041 256.166 45.4142 243.412 46.1063 241.929C47.5893 238.765 55.4987 232.635 56.5863 231.449C57.575 230.46 60.9365 227 62.2217 227C63.1116 227.593 62.6172 229.076 62.4195 229.669C61.1342 232.932 55.5976 236.096 53.7191 237.875Z" fill="#0072BC"/>
<path fill-rule="evenodd" clip-rule="evenodd" d="M72.9985 237.875C74.2837 239.26 76.2611 242.423 74.9758 245.093C72.2075 246.081 72.4053 236.59 69.1426 236.689C67.5607 238.271 69.637 242.72 70.329 244.697C71.12 247.169 71.812 252.31 73.3939 254.782C74.6792 256.858 73.6905 263.383 74.086 265.558C75.2724 266.646 78.2384 265.855 79.5237 265.657C79.5237 263.087 79.8203 261.109 80.2158 256.957C80.3147 256.166 81.2045 243.412 80.5124 241.929C79.0294 238.765 71.12 232.635 70.0324 231.449C69.0438 230.46 65.6823 227 64.397 227C63.4083 227.593 64.0015 229.076 64.1992 229.669C65.5834 232.932 71.12 236.096 72.9985 237.875Z" fill="#0072BC"/>
<path fill-rule="evenodd" clip-rule="evenodd" d="M39.9761 238.767C38.7897 239.854 37.5044 240.349 35.8236 242.425C35.1316 239.953 35.3293 237.778 35.6259 236.295C36.2191 234.417 37.2078 232.242 38.7897 231.648C38.4931 232.736 37.8998 234.219 37.801 236.196C37.1089 238.965 36.7134 239.064 36.8123 239.459C37.01 239.459 37.8998 237.976 38.9874 236.888C40.2727 235.603 41.9534 235.307 43.041 234.516C42.9421 235.01 41.9534 236.691 39.9761 238.767Z" fill="#0072BC"/>
<path fill-rule="evenodd" clip-rule="evenodd" d="M34.1441 250.239C32.5622 247.372 32.3645 245.196 32.2656 242.725C32.3645 241.044 33.1554 237.089 34.4407 236.496C34.0452 240.055 35.0339 240.352 34.6384 243.318C34.6384 243.516 34.243 246.581 34.243 246.679C34.7373 246.581 34.243 243.812 39.9773 239.956C38.692 242.132 39.2852 242.824 37.1101 245.691C34.4407 248.261 34.0452 250.832 34.1441 250.239Z" fill="#0072BC"/>
<path fill-rule="evenodd" clip-rule="evenodd" d="M36.4181 253.002C35.2317 254.781 35.4294 255.572 35.1328 256.462C32.2656 254.781 29.003 248.157 30.2883 244.895C31.0792 247.366 32.0679 247.959 32.8588 250.036C34.1441 253.101 33.9464 254.089 34.7373 254.781C34.5396 253.199 35.1328 251.222 35.6271 249.838C36.4181 248.652 37.0113 247.07 37.6045 246.476C38.1977 248.849 37.8022 250.629 36.4181 253.002Z" fill="#0072BC"/>
<path fill-rule="evenodd" clip-rule="evenodd" d="M38.9873 258.638C38.9873 261.208 38.4929 262.296 38.2952 264.174C33.3518 262.592 30.7812 256.957 30.7812 254.09C32.2643 257.451 34.4394 257.451 37.3065 262.296C37.5043 260.516 36.8122 261.801 36.7133 258.44C36.8122 254.782 37.5043 254.683 37.702 252.508C38.6907 253.398 38.9873 257.352 38.9873 258.638Z" fill="#0072BC"/>
<path fill-rule="evenodd" clip-rule="evenodd" d="M43.1409 265.856C43.5363 267.734 43.6352 269.909 43.9318 271.59C41.0646 270.601 40.3726 271.293 37.0111 269.217C35.4292 268.426 32.7598 264.867 32.8586 262.395C36.2201 266.053 36.7145 265.658 38.3952 267.042C39.8782 268.229 41.0646 270.008 42.1522 269.81C42.2511 268.822 39.6805 266.647 40.076 260.418C40.768 261.011 42.6465 263.878 43.1409 265.856Z" fill="#0072BC"/>
<path fill-rule="evenodd" clip-rule="evenodd" d="M48.6769 270.506C49.5668 271.792 49.369 272.286 51.5441 274.857C50.9509 275.153 47.7871 275.944 45.7109 276.043C44.3268 276.043 39.2845 274.758 37.7026 271.297C40.5698 272.879 40.5698 272.484 44.4256 273.275C47.1939 273.868 49.0724 274.758 49.8634 274.659C49.6656 274.263 47.5894 273.374 46.1064 271.594C44.6234 269.617 45.0188 267.441 43.7336 265.86C44.6234 265.563 47.9849 269.518 48.6769 270.506Z" fill="#0072BC"/>
<path fill-rule="evenodd" clip-rule="evenodd" d="M86.4443 238.766C87.6307 239.853 88.916 240.348 90.5967 242.424C91.2888 239.952 91.0911 237.777 90.7945 236.393C90.3001 234.514 89.2126 232.339 87.6307 231.746C88.0262 232.834 88.5205 234.317 88.6194 236.393C89.3115 239.161 89.7069 239.26 89.6081 239.656C89.4103 239.656 88.5205 238.172 87.433 237.085C86.1477 235.8 84.4669 235.503 83.3794 234.712C83.4783 235.009 84.4669 236.689 86.4443 238.766Z" fill="#0072BC"/>
<path fill-rule="evenodd" clip-rule="evenodd" d="M92.2783 250.239C93.959 247.372 94.0579 245.196 94.1568 242.725C94.0579 241.044 93.2669 237.089 92.0805 236.496C92.3771 240.055 91.4873 240.352 91.8828 243.318C91.8828 243.516 92.2783 246.581 92.2783 246.679C91.7839 246.581 92.2783 243.812 86.5439 239.956C87.7304 242.132 87.1371 242.824 89.4111 245.691C92.0805 248.261 92.3771 250.832 92.2783 250.239Z" fill="#0072BC"/>
<path fill-rule="evenodd" clip-rule="evenodd" d="M90.004 253.002C91.1904 254.781 90.9926 255.572 91.2892 256.462C94.1564 254.781 97.419 248.256 96.2326 244.895C95.5406 247.366 94.453 247.959 93.7609 250.036C92.4757 253.101 92.6734 254.089 91.8824 254.781C92.0802 253.199 91.487 251.222 90.8938 249.838C90.1028 248.652 89.5096 247.07 88.9164 246.476C88.2243 248.849 88.7187 250.629 90.004 253.002Z" fill="#0072BC"/>
<path fill-rule="evenodd" clip-rule="evenodd" d="M87.4326 258.638C87.4326 261.208 87.927 262.296 88.1247 264.174C93.0681 262.592 95.6386 256.957 95.6386 254.09C94.0568 257.451 91.9805 257.451 89.0145 262.296C88.7179 260.516 89.5088 261.801 89.6077 258.44C89.5088 254.782 88.8168 254.683 88.619 252.508C87.7292 253.398 87.4326 257.352 87.4326 258.638Z" fill="#0072BC"/>
<path fill-rule="evenodd" clip-rule="evenodd" d="M83.2802 265.856C82.8847 267.734 82.7859 269.909 82.4893 271.59C85.2576 270.601 85.9496 271.293 89.3111 269.217C90.893 268.426 93.6613 264.867 93.4636 262.395C90.1021 266.053 89.5089 265.658 87.927 267.042C86.444 268.229 85.1587 270.008 84.0711 269.81C83.9723 268.822 86.5428 266.647 86.2462 260.418C85.653 261.011 83.7745 263.878 83.2802 265.856Z" fill="#0072BC"/>
<path fill-rule="evenodd" clip-rule="evenodd" d="M77.7456 270.506C76.9546 271.792 77.1524 272.286 74.8784 274.857C75.4716 275.153 78.6354 275.944 80.8105 276.043C82.1946 276.043 87.138 274.758 88.8188 271.297C85.9516 272.879 85.9516 272.484 82.0958 273.275C79.3275 273.868 77.449 274.758 76.658 274.659C76.8558 274.263 78.932 273.374 80.415 271.594C81.898 269.617 81.5026 267.441 82.8867 265.86C81.7992 265.563 78.4377 269.518 77.7456 270.506Z" fill="#0072BC"/>
<path fill-rule="evenodd" clip-rule="evenodd" d="M56.1918 282.171L55.4009 281.776C55.4009 281.776 60.6409 275.349 69.7367 275.844C78.7336 276.338 78.1404 278.414 82.985 278.117C83.4793 278.117 82.5895 278.81 82.5895 278.81C82.5895 278.81 77.8438 280.589 72.0106 278.612C66.0786 276.634 62.3216 275.349 56.1918 282.171Z" fill="#0072BC"/>
<path fill-rule="evenodd" clip-rule="evenodd" d="M70.428 282.171L71.2189 281.776C71.2189 281.776 65.979 275.349 56.982 275.844C47.8862 276.338 48.4794 278.414 43.6349 278.117C43.1405 278.117 44.0303 278.81 44.0303 278.81C44.0303 278.81 48.776 280.589 54.6092 278.612C60.5412 276.634 64.2982 275.349 70.428 282.171Z" fill="#0072BC"/>
<path fill-rule="evenodd" clip-rule="evenodd" d="M134.594 254.188C134.594 262.888 129.947 267.041 120.357 267.041C110.766 267.041 106.12 262.888 106.12 254.188V235.008H115.71V252.013C115.71 255.177 115.71 259.23 120.357 259.23C124.904 259.23 124.904 255.276 124.904 252.013V235.008H134.495V254.188H134.594Z" fill="#0072BC"/>
<path fill-rule="evenodd" clip-rule="evenodd" d="M140.327 235.008H150.213L159.309 251.716H159.408V235.008H168.504V266.25H159.112L149.521 249.146H149.422V266.25H140.327V235.008Z" fill="#0072BC"/>
<path fill-rule="evenodd" clip-rule="evenodd" d="M174.437 235.008H184.027V245.883H193.024V235.008H202.713V266.25H193.024V253.892H184.027V266.25H174.437V235.008Z" fill="#0072BC"/>
<path fill-rule="evenodd" clip-rule="evenodd" d="M227.331 246.671C227.133 245.485 226.244 242.123 222.289 242.123C217.741 242.123 216.357 246.473 216.357 250.725C216.357 254.877 217.84 259.326 222.289 259.326C225.551 259.326 226.837 257.052 227.331 254.086H236.822C236.822 260.414 231.681 267.137 222.585 267.137C212.501 267.137 206.767 260.018 206.767 250.725C206.767 240.838 212.995 234.312 222.585 234.312C231.187 234.312 235.933 238.86 236.724 246.671H227.331Z" fill="#0072BC"/>
<path fill-rule="evenodd" clip-rule="evenodd" d="M240.876 266.253H250.466V255.377H255.607C259.364 255.377 259.661 258.442 259.958 261.507C260.057 263.089 260.254 264.77 260.749 266.352H270.339C269.449 264.869 269.449 261.21 269.251 259.629C268.856 255.773 267.274 252.807 264.703 251.818C267.867 250.632 269.35 247.27 269.35 244.007C269.35 238.075 264.604 235.109 259.167 235.109H240.777V266.253H240.876ZM250.466 242.426H255.014C258.672 242.426 259.76 243.612 259.76 245.49C259.76 248.259 257.288 248.555 255.509 248.555H250.466V242.426Z" fill="#0072BC"/>
<path fill-rule="evenodd" clip-rule="evenodd" d="M109.185 273.47H106.12V271.492H114.622V273.47H111.557V281.972H109.185V273.47Z" fill="#0072BC"/>
<path fill-rule="evenodd" clip-rule="evenodd" d="M115.413 271.492H117.489V275.447C117.984 274.557 118.972 274.162 119.664 274.162C121.839 274.162 122.433 275.447 122.433 277.325V281.972H120.356V277.721C120.356 276.436 119.961 275.842 119.071 275.842C117.984 275.842 117.489 276.436 117.489 278.017V281.972H115.413V271.492Z" fill="#0072BC"/>
<path fill-rule="evenodd" clip-rule="evenodd" d="M128.858 277.418C128.661 276.33 128.166 275.836 127.178 275.836C125.892 275.836 125.497 276.824 125.497 277.418H128.858ZM125.497 278.703C125.596 279.988 126.189 280.581 127.375 280.581C128.166 280.581 128.858 280.087 129.056 279.593H130.935C130.341 281.372 129.056 282.163 127.375 282.163C125.003 282.163 123.52 280.483 123.52 278.209C123.52 275.935 125.101 274.254 127.375 274.254C129.946 274.254 131.231 276.429 131.033 278.802H125.497V278.703Z" fill="#0072BC"/>
<path fill-rule="evenodd" clip-rule="evenodd" d="M144.48 278.017C144.48 280.885 142.799 282.269 140.031 282.269C137.262 282.269 135.582 280.885 135.582 278.017V271.492H137.855V278.017C137.855 279.204 138.152 280.291 140.031 280.291C141.711 280.291 142.206 279.599 142.206 278.017V271.492H144.48V278.017Z" fill="#0072BC"/>
<path fill-rule="evenodd" clip-rule="evenodd" d="M145.962 271.492H148.335L152.685 278.512V271.492H154.86V281.972H152.587L148.236 274.953H148.137V281.972H145.962V271.492Z" fill="#0072BC"/>
<path fill-rule="evenodd" clip-rule="evenodd" d="M159.903 281.972H162.177V277.919H164.451C165.638 277.919 166.033 278.413 166.231 279.5C166.33 280.291 166.33 281.379 166.626 281.972H168.9C168.505 281.379 168.505 280.193 168.505 279.5C168.406 278.413 168.109 277.325 167.022 277.029C168.208 276.534 168.703 275.645 168.703 274.359C168.703 272.777 167.516 271.492 165.638 271.492H160.002V281.972H159.903ZM162.177 273.272H164.748C165.737 273.272 166.33 273.667 166.33 274.755C166.33 275.842 165.737 276.238 164.748 276.238H162.177V273.272Z" fill="#0072BC"/>
<path fill-rule="evenodd" clip-rule="evenodd" d="M177.204 278.712C177.303 276.339 176.117 274.164 173.546 274.164C171.272 274.164 169.69 275.944 169.69 278.119C169.69 280.492 171.173 282.073 173.546 282.073C175.227 282.073 176.512 281.283 177.106 279.503H175.227C175.128 279.997 174.436 280.492 173.546 280.492C172.36 280.492 171.767 279.898 171.668 278.613H177.204V278.712ZM171.668 277.427C171.668 276.833 172.063 275.845 173.447 275.845C174.436 275.845 174.93 276.438 175.128 277.427H171.668Z" fill="#0072BC"/>
<path fill-rule="evenodd" clip-rule="evenodd" d="M178.491 275.841H177.304V274.457H178.589V273.864C178.589 272.579 179.38 271.59 181.16 271.59C181.556 271.59 181.951 271.59 182.248 271.689V273.271C182.05 273.271 181.753 273.271 181.457 273.271C180.863 273.271 180.666 273.468 180.666 274.16V274.655H182.149V276.039H180.666V282.268H178.589V275.841H178.491Z" fill="#0072BC"/>
<path fill-rule="evenodd" clip-rule="evenodd" d="M189.86 281.972H187.883V280.885C187.388 281.774 186.4 282.17 185.609 282.17C183.434 282.17 182.84 280.885 182.84 279.006V274.359H184.917V278.611C184.917 279.896 185.312 280.489 186.301 280.489C187.388 280.489 187.883 279.896 187.883 278.314V274.359H189.959V281.972H189.86Z" fill="#0072BC"/>
<path fill-rule="evenodd" clip-rule="evenodd" d="M198.363 274.362H196.385V275.35C195.891 274.461 195.1 274.164 194.111 274.164C192.035 274.164 190.849 275.944 190.849 277.921C190.849 279.997 191.837 281.777 194.111 281.777C195.001 281.777 195.891 281.381 196.385 280.59V281.579C196.385 282.667 195.891 283.458 194.704 283.458C194.012 283.458 193.32 283.161 193.123 282.37H191.046C191.145 284.15 192.925 284.842 194.408 284.842C197.868 284.842 198.363 282.766 198.363 281.48V274.362ZM194.606 280.195C193.32 280.195 192.925 279.009 192.925 277.921C192.925 276.833 193.419 275.746 194.606 275.746C195.99 275.746 196.385 276.833 196.385 278.119C196.385 279.206 195.792 280.195 194.606 280.195Z" fill="#0072BC"/>
<path fill-rule="evenodd" clip-rule="evenodd" d="M206.965 278.712C207.063 276.339 205.877 274.164 203.307 274.164C201.033 274.164 199.451 275.944 199.451 278.119C199.451 280.492 200.934 282.073 203.307 282.073C204.987 282.073 206.273 281.283 206.866 279.503H204.987C204.888 279.997 204.196 280.492 203.307 280.492C202.12 280.492 201.527 279.898 201.428 278.613H206.965V278.712ZM201.527 277.427C201.527 276.833 201.922 275.845 203.208 275.845C204.196 275.845 204.691 276.438 204.888 277.427H201.527Z" fill="#0072BC"/>
<path fill-rule="evenodd" clip-rule="evenodd" d="M215.072 278.712C215.17 276.339 213.984 274.164 211.413 274.164C209.139 274.164 207.558 275.944 207.558 278.119C207.558 280.492 209.041 282.073 211.413 282.073C213.094 282.073 214.379 281.283 214.973 279.503H213.094C212.995 279.997 212.303 280.492 211.413 280.492C210.227 280.492 209.634 279.898 209.535 278.613H215.072V278.712ZM209.634 277.427C209.634 276.833 210.029 275.845 211.413 275.845C212.402 275.845 212.896 276.438 213.094 277.427H209.634Z" fill="#0072BC"/>
<path fill-rule="evenodd" clip-rule="evenodd" d="M219.521 281.972H221.893L222.684 279.599H226.639L227.43 281.972H229.803L225.848 271.492H223.475L219.521 281.972ZM224.662 274.063L226.046 277.919H223.376L224.662 274.063Z" fill="#0072BC"/>
<path fill-rule="evenodd" clip-rule="evenodd" d="M237.415 274.362H235.438V275.35C234.944 274.461 234.153 274.164 233.164 274.164C230.989 274.164 229.901 275.944 229.901 277.921C229.901 279.997 230.89 281.777 233.164 281.777C234.054 281.777 234.944 281.381 235.438 280.59V281.579C235.438 282.667 234.944 283.458 233.757 283.458C233.065 283.458 232.373 283.161 232.175 282.37H230.099C230.198 284.15 231.978 284.842 233.461 284.842C236.921 284.842 237.415 282.766 237.415 281.48V274.362ZM233.658 280.195C232.373 280.195 231.978 279.009 231.978 277.921C231.978 276.833 232.472 275.746 233.658 275.746C235.042 275.746 235.438 276.833 235.438 278.119C235.438 279.206 234.845 280.195 233.658 280.195Z" fill="#0072BC"/>
<path fill-rule="evenodd" clip-rule="evenodd" d="M246.017 278.712C246.116 276.339 244.93 274.164 242.359 274.164C240.085 274.164 238.503 275.944 238.503 278.119C238.503 280.492 239.986 282.073 242.359 282.073C244.04 282.073 245.325 281.283 245.918 279.503H244.04C243.941 279.997 243.249 280.492 242.359 280.492C241.173 280.492 240.58 279.898 240.481 278.613H246.017V278.712ZM240.58 277.427C240.58 276.833 240.975 275.845 242.359 275.845C243.348 275.845 243.842 276.438 244.04 277.427H240.58Z" fill="#0072BC"/>
<path fill-rule="evenodd" clip-rule="evenodd" d="M246.907 274.362H248.885V275.449C249.379 274.56 250.368 274.164 251.159 274.164C253.334 274.164 253.927 275.449 253.927 277.328V281.975H251.851V277.723C251.851 276.438 251.455 275.845 250.565 275.845C249.478 275.845 248.983 276.438 248.983 278.02V281.975H246.907V274.362Z" fill="#0072BC"/>
<path fill-rule="evenodd" clip-rule="evenodd" d="M260.451 277.029C260.353 276.139 259.759 275.743 258.87 275.743C257.485 275.743 257.09 277.127 257.09 278.215C257.09 279.302 257.485 280.588 258.87 280.588C259.858 280.588 260.353 279.995 260.55 279.006H262.528C262.231 280.983 260.847 282.071 258.87 282.071C256.596 282.071 255.014 280.489 255.014 278.215C255.014 275.842 256.398 274.062 258.87 274.062C260.649 274.062 262.33 274.952 262.429 276.93H260.451V277.029Z" fill="#0072BC"/>
<path fill-rule="evenodd" clip-rule="evenodd" d="M267.176 282.964C266.681 284.15 265.989 284.644 264.605 284.644C264.21 284.644 263.715 284.644 263.32 284.545V282.865C263.715 282.865 264.111 282.964 264.506 282.964C265.198 282.865 265.495 282.173 265.198 281.579L262.529 274.461H264.803L266.484 279.701L268.164 274.461H270.339L267.176 282.964Z" fill="#0072BC"/>
<path d="M284.279 230.168H283.488V284.941H284.279V230.168Z" fill="black"/>
<path d="M297.132 255.774H311.566V252.511H300.889V246.678H311.369V243.415H300.889V237.977H311.566V234.715H297.132V255.774Z" fill="black"/>
<path d="M333.614 255.774H337.272V234.715H332.131L326.298 248.853L320.662 234.715H315.422V255.774H319.08V239.757L325.507 255.774H327.089L333.614 239.757V255.774Z" fill="black"/>
<path d="M341.82 255.774H356.255V252.511H345.478V246.678H356.057V243.415H345.478V237.977H356.255V234.715H341.82V255.774Z" fill="black"/>
<path d="M372.074 255.775H376.325L371.184 247.47C373.754 247.075 376.226 244.998 376.226 241.241C376.226 237.385 373.458 234.617 369.305 234.617H360.012V255.775H363.67V247.865H367.328L372.074 255.775ZM372.469 241.241C372.469 243.219 370.986 244.603 368.91 244.603H363.868V237.979H368.91C370.887 237.979 372.469 239.264 372.469 241.241Z" fill="black"/>
<path d="M378.994 245.188C378.994 251.812 383.938 256.162 390.067 256.162C393.725 256.162 396.691 254.679 398.768 252.306V244.397H388.782V247.66H395.11V250.922C394.121 251.812 392.242 252.801 390.067 252.801C385.915 252.801 382.751 249.538 382.751 245.188C382.751 240.838 385.816 237.575 390.067 237.575C392.44 237.575 394.418 238.762 395.505 240.343L398.57 238.663C396.889 236.191 394.22 234.312 390.067 234.312C383.938 234.312 378.994 238.663 378.994 245.188Z" fill="black"/>
<path d="M402.625 255.774H417.059V252.511H406.283V246.678H416.861V243.415H406.283V237.977H417.059V234.715H402.625V255.774Z" fill="black"/>
<path d="M435.547 255.774H439.206V234.715H435.449V249.644L424.672 234.715H420.915V255.774H424.573V240.35L435.547 255.774Z" fill="black"/>
<path d="M453.64 256.165C458.089 256.165 460.66 253.99 462.242 251.419L459.078 249.837C458.089 251.617 456.013 252.902 453.64 252.902C449.587 252.902 446.522 249.739 446.522 245.29C446.522 240.84 449.587 237.677 453.64 237.677C456.112 237.677 458.089 238.962 459.078 240.742L462.242 239.16C460.66 236.589 457.99 234.414 453.64 234.414C447.609 234.414 442.765 238.863 442.765 245.29C442.765 251.716 447.51 256.165 453.64 256.165Z" fill="black"/>
<path d="M470.546 255.774H474.303V246.974L482.41 234.715H478.159L472.424 243.712L466.591 234.715H462.34L470.546 246.974V255.774Z" fill="black"/>
<path d="M311.863 281.477H315.521V260.418H311.863V269.019H300.889V260.418H297.132V281.477H300.889V272.282H311.863V281.477Z" fill="black"/>
<path d="M334.899 281.477H338.952L330.647 260.418H326L317.794 281.477H321.848L323.43 277.423H333.416L334.899 281.477ZM328.373 263.483L332.328 274.161H324.419L328.373 263.483Z" fill="black"/>
<path d="M356.057 281.477H359.616V260.418H355.859V275.347L345.083 260.418H341.326V281.477H344.984V266.053L356.057 281.477Z" fill="black"/>
<path d="M364.066 281.486H371.876C378.501 281.486 382.95 277.136 382.95 270.907C382.95 264.678 378.501 260.328 371.876 260.328H364.066V281.486ZM367.823 278.223V263.69H371.975C376.721 263.69 379.193 266.952 379.193 271.006C379.193 274.961 376.523 278.322 371.975 278.322H367.823V278.223Z" fill="black"/>
<path d="M386.508 281.477H397.186C401.14 281.477 403.315 279.005 403.315 275.742C403.315 273.172 401.437 270.898 399.262 270.601C401.239 270.206 402.92 268.426 402.92 265.757C402.92 262.791 400.745 260.418 396.889 260.418H386.508V281.477ZM390.265 269.118V263.681H396.197C398.075 263.681 399.163 264.867 399.163 266.449C399.163 268.031 398.075 269.217 396.197 269.217H390.265V269.118ZM390.265 278.214V272.381H396.296C398.372 272.381 399.558 273.666 399.558 275.248C399.558 277.127 398.372 278.214 396.296 278.214H390.265Z" fill="black"/>
<path d="M406.084 270.903C406.084 277.23 410.533 281.778 416.861 281.778C423.188 281.778 427.637 277.131 427.637 270.903C427.637 264.674 423.188 260.027 416.861 260.027C410.533 260.027 406.084 264.674 406.084 270.903ZM423.88 270.903C423.88 275.253 421.112 278.516 416.861 278.516C412.609 278.516 409.841 275.253 409.841 270.903C409.841 266.553 412.609 263.29 416.861 263.29C421.112 263.29 423.88 266.553 423.88 270.903Z" fill="black"/>
<path d="M430.308 270.903C430.308 277.23 434.757 281.778 441.084 281.778C447.412 281.778 451.861 277.131 451.861 270.903C451.861 264.674 447.412 260.027 441.084 260.027C434.757 260.027 430.308 264.674 430.308 270.903ZM448.104 270.903C448.104 275.253 445.335 278.516 441.084 278.516C436.833 278.516 434.065 275.253 434.065 270.903C434.065 266.553 436.833 263.29 441.084 263.29C445.335 263.29 448.104 266.553 448.104 270.903Z" fill="black"/>
<path d="M468.072 281.477H472.62L463.425 270.305L472.027 260.418H467.38L459.174 270.404V260.418H455.417V281.477H459.174V274.754L460.954 272.579L468.072 281.477Z" fill="black"/>
<path fill-rule="evenodd" clip-rule="evenodd" d="M42.2516 233.527C41.4606 234.219 39.8787 234.713 38.8901 236.097C38.4946 235.306 39.5821 233.428 40.8674 232.241C41.8561 231.451 43.7346 230.165 44.2289 230.066C44.5255 231.055 43.0425 232.538 42.2516 233.527Z" fill="#0072BC"/>
<path fill-rule="evenodd" clip-rule="evenodd" d="M84.2701 233.527C84.9622 234.219 86.544 234.614 87.6316 236.097C88.1259 235.306 86.9395 233.428 85.6542 232.241C84.7644 231.451 82.8859 230.165 82.2927 230.066C81.8973 231.055 83.3803 232.538 84.2701 233.527Z" fill="#0072BC"/>
</svg>
